<svg width="63px" height="90px" version="1.1" viewBox="0 0 63 90" xmlns="http://www.w3.org/2000/svg"
     xmlns:xlink="http://www.w3.org/1999/xlink" focusable="false">
    <title id="Barn ikon 1">Barn ikon 1</title>
    <desc>Created with Sketch.</desc>
    <defs>
        <path id="a"
              d="m44 14.54v19.46h-44v-19.46c0-5.5672 7.1876-11.923 12-14.54h20c4.8561 2.6632 12 9.037 12 14.54z"/>
    </defs>
    <g fill="none" fill-rule="evenodd">
        <g transform="translate(-459 -697)">
            <g transform="translate(459 697)">
                <g id="Group">
                    <g transform="translate(9.6923 55.946)">
                        <g id="c">
                            <mask id="b" fill="white">
                                <use xlink:href="#a"/>
                            </mask>
                            <use fill="#D8A25D" xlink:href="#a"/>
                            <g fill="#D8A25C" mask="url(#b)">
                                <g transform="translate(-82.261 -105.78)">
                                    <polygon points="0 227 230 227 230 0 0 0"/>
                                </g>
                            </g>
                        </g>
                    </g>
                    <path d="m2.4783 27.376c0.93262-15.276 13.57-27.376 29.022-27.376s28.089 12.1 29.022 27.376c1.4789 0.83299 2.4783 2.4221 2.4783 4.2456v4.8649c0 2.6868-2.1697 4.8649-4.8462 4.8649-0.070818 0-0.14128-0.0015249-0.21136-0.0045438-3.2677 7.1505-9.3289 12.747-16.781 15.382-0.39695 5.0077-4.5709 8.9473-9.6614 8.9473s-9.2645-3.9396-9.6614-8.9473c-7.4521-2.6346-13.513-8.2311-16.781-15.382-0.070078 0.0030189-0.14054 0.0045438-0.21136 0.0045438-2.6765 0-4.8462-2.1781-4.8462-4.8649v-4.8649c-2.2245e-16 -1.8235 0.99936-3.4126 2.4783-4.2456z"
                          fill="#E7E5E2"/>
                    <g transform="translate(21.808)" fill="#78706A" fill-rule="nonzero">
                        <path transform="translate(5.5554 6.5525) rotate(-48) translate(-5.5554 -6.5525)"
                              d="m6.6629 2.9185c0.48021-0.24083 1.0633-0.047674 1.3024 0.43142 0.23909 0.47909 0.043619 1.0627-0.43659 1.3035-0.59826 0.30003-0.69252 0.61416-0.69557 2.2037-0.0031694 1.6537-0.89371 2.8399-2.5126 3.3823-0.5092 0.17063-1.0588-0.10315-1.2275-0.6115-0.16874-0.50835 0.10725-1.0588 0.61645-1.2294 0.83885-0.28109 1.1795-0.73488 1.1811-1.5377 0.0043653-2.2776 0.2792-3.1935 1.7724-3.9423z"/>
                        <path transform="translate(9.6661 6.5221) rotate(-27) translate(-9.6661 -6.5221)"
                              d="m10.771 2.8836c0.47948-0.24098 1.0619-0.047355 1.3008 0.43247 0.23894 0.47982 0.043938 1.0641-0.43554 1.3051-0.59736 0.30022-0.69138 0.61473-0.69386 2.2063-0.0025782 1.6559-0.89151 2.8434-2.508 3.386-0.50846 0.17067-1.0574-0.10367-1.2261-0.61276-0.1687-0.50909 0.10673-1.0601 0.6152-1.2308 0.83763-0.28116 1.1777-0.73543 1.1789-1.5394 0.003551-2.2806 0.2777-3.1977 1.7686-3.947z"/>
                        <path transform="translate(13.777 6.4917) rotate(-9) translate(-13.777 -6.4917)"
                              d="m14.877 2.8517c0.47891-0.24068 1.0611-0.046363 1.3003 0.43402 0.23923 0.48039 0.04493 1.0649-0.43399 1.3056-0.59665 0.29985-0.69031 0.61449-0.69125 2.2072-9.848e-4 1.657-0.88816 2.8445-2.503 3.3859-0.50794 0.1703-1.0568-0.10476-1.2258-0.61437-0.16907-0.50961 0.10564-1.0608 0.61358-1.2311 0.83678-0.28055 1.1762-0.73481 1.1766-1.5393 0.0013564-2.2822 0.27443-3.1996 1.7636-3.948z"/>
                    </g>
                    <g transform="translate(12.115 21.892)">
                        <g transform="translate(0 2)">
                            <path d="m14.728 20.447c-0.24081-0.49398-0.045596-1.0947 0.43603-1.3416 0.48163-0.24699 1.0673-0.046765 1.3081 0.44721 0.46764 0.95927 1.4191 1.4472 3.0279 1.4472s2.5603-0.48794 3.0279-1.4472c0.24081-0.49398 0.82647-0.6942 1.3081-0.44721 0.48163 0.24699 0.67685 0.84766 0.43603 1.3416-0.83236 1.7074-2.4809 2.5528-4.7721 2.5528s-3.9397-0.84539-4.7721-2.5528z"
                                  fill="#59514B" fill-rule="nonzero"/>
                            <path d="m11.7 17.999c0 3.3142-2.6186 6.0007-5.8487 6.0007-3.2314 0-5.8513-2.6865-5.8513-6.0007 0-3.3128 2.6199-5.9993 5.8513-5.9993 3.2301 0 5.8487 2.6865 5.8487 5.9993"
                                  fill="#E8CCC8"/>
                            <path d="m39 17.999c0 3.3142-2.6186 6.0007-5.8487 6.0007-3.2314 0-5.8513-2.6865-5.8513-6.0007 0-3.3128 2.6199-5.9993 5.8513-5.9993 3.2301 0 5.8487 2.6865 5.8487 5.9993"
                                  fill="#E8CCC8"/>
                            <path d="m21.107 9.0674c-0.52697 0.11358-1.0439-0.23249-1.1547-0.77297-0.11074-0.54048 0.22668-1.0707 0.75364-1.1843 1.3111-0.28259 2.4072-0.065169 3.0107 0.97301 1.1724 2.0198 0.76391 4.3473-1.0847 5.9595-1.0745 0.93676-2.5827 1.273-3.6362 0.61936-0.46075-0.28583-0.60834-0.90064-0.32965-1.3732 0.27869-0.47256 0.87812-0.62394 1.3389-0.3381 0.23063 0.14308 0.86733 0.0011424 1.3639-0.4318 1.1321-0.9873 1.3521-2.2413 0.67251-3.4122-0.063944-0.11001-0.34659-0.16607-0.93439-0.039378z"
                                  fill="#59514B" fill-rule="nonzero"/>
                            <path d="m8.7886 7.9933c-2.6875 0.18052-3.4397-3.3134-2.63-5.5916 0.1523-0.43417 1.042-2.4016 2.617-2.4016 1.5731 0 2.2678 1.0763 2.3644 1.2614 1.1571 2.2234 0.59063 6.5377-2.3514 6.7319"
                                  fill="#59514B"/>
                            <path d="m30.239 7.9933c-2.6875 0.18052-3.4397-3.3134-2.63-5.5916 0.1523-0.43417 1.042-2.4016 2.617-2.4016 1.5731 0 2.2678 1.0763 2.3644 1.2614 1.1571 2.2234 0.59063 6.5377-2.3514 6.7319"
                                  fill="#59514B"/>
                        </g>
                    </g>
                </g>
            </g>
        </g>
    </g>
</svg>
