<svg width="64" height="64" viewBox="0 0 64 64" fill="none" xmlns="http://www.w3.org/2000/svg">
<g clip-path="url(#clip0_2275_65451)">
<path d="M53.3328 25.7775C53.3328 18.9046 48.1094 13.333 41.6661 13.333C38.4011 13.333 35.4493 14.7636 33.3338 17.0693L30.2559 29.1955H36.4097L33.3328 50.6663L49.9994 34.6663C52.162 32.4074 53.3328 29.261 53.3328 25.7775Z" fill="#FFECCC"/>
<path d="M16.6663 34.6663L33.333 50.6663L36.4099 29.1955H30.2561L33.3341 17.0693C31.2164 14.7636 28.2647 13.333 24.9997 13.333C18.5564 13.333 13.333 18.9046 13.333 25.7775C13.333 29.261 14.5038 32.4074 16.6663 34.6663Z" fill="#FFECCC"/>
<path d="M50.3696 17.3575H49.3696V18.3575V25.6667H43V11.5224L53 1.42137L63 11.5224V25.6667H56.8696V18.3575V17.3575H55.8696H50.3696Z" stroke="#23262A" stroke-width="2"/>
<path d="M10.627 32.333V32.333C5.37768 34.689 2.00027 39.9068 2.00027 45.6606L2.00027 64.667" stroke="#23262A" stroke-width="2"/>
<mask id="path-5-inside-1_2275_65451" fill="white">
<path fill-rule="evenodd" clip-rule="evenodd" d="M18.31 24.8853C16.2767 22.9603 11.6721 20.7178 8.74073 20.7178C4.4861 20.7178 2 23.318 2 26.5256C2 29.7331 4.88888 32.3333 8.74073 32.3333C11.6721 32.3333 16.2765 30.0909 18.3098 28.1659C17.7677 27.8234 17.4074 27.2168 17.4074 26.5257C17.4074 25.8344 17.7678 25.2278 18.31 24.8853Z"/>
</mask>
<path d="M18.31 24.8853L19.3781 26.5762L21.5535 25.202L19.685 23.433L18.31 24.8853ZM18.3098 28.1659L19.6849 29.6182L21.5532 27.8494L19.3781 26.4751L18.3098 28.1659ZM8.74073 22.7178C9.79042 22.7178 11.3697 23.1475 13.038 23.902C14.685 24.6468 16.1324 25.5779 16.9349 26.3377L19.685 23.433C18.4543 22.2677 16.5828 21.115 14.6863 20.2573C12.8112 19.4093 10.6224 18.7178 8.74073 18.7178V22.7178ZM4 26.5256C4 25.4583 4.40342 24.5519 5.12198 23.8971C5.84659 23.2368 7.02354 22.7178 8.74073 22.7178V18.7178C6.20328 18.7178 4.00987 19.4989 2.42778 20.9405C0.839632 22.3878 0 24.3852 0 26.5256H4ZM8.74073 30.3333C5.73001 30.3333 4 28.3823 4 26.5256H0C0 31.0839 4.04776 34.3333 8.74073 34.3333V30.3333ZM16.9348 26.7135C16.1323 27.4733 14.6849 28.4044 13.0379 29.1492C11.3696 29.9036 9.79039 30.3333 8.74073 30.3333V34.3333C10.6224 34.3333 12.8111 33.6418 14.6862 32.7938C16.5826 31.9362 18.4541 30.7835 19.6849 29.6182L16.9348 26.7135ZM19.3781 26.4751C19.3877 26.4811 19.3941 26.4882 19.3988 26.4966C19.4015 26.5013 19.4038 26.5069 19.4054 26.513C19.4071 26.5193 19.4074 26.524 19.4074 26.5257H15.4074C15.4074 27.9282 16.1411 29.1614 17.2416 29.8567L19.3781 26.4751ZM19.4074 26.5257C19.4074 26.5273 19.4071 26.532 19.4054 26.5383C19.4038 26.5444 19.4015 26.55 19.3988 26.5547C19.3941 26.5631 19.3877 26.5702 19.3781 26.5762L17.2418 23.1944C16.1412 23.8897 15.4074 25.123 15.4074 26.5257H19.4074Z" fill="#23262A" mask="url(#path-5-inside-1_2275_65451)"/>
<mask id="path-7-inside-2_2275_65451" fill="white">
<path fill-rule="evenodd" clip-rule="evenodd" d="M20.2351 28.2362C19.9661 28.3796 19.6594 28.4609 19.3337 28.4609C18.2936 28.4609 17.4461 27.6321 17.409 26.5957C14.7339 27.4031 10.4994 30.2903 9.03361 32.8422C6.90629 36.546 7.90347 40.0103 10.6669 41.6141C13.4304 43.2179 17.1151 42.0031 19.041 38.65C20.5067 36.0982 20.8769 30.9687 20.2351 28.2362Z"/>
</mask>
<path d="M20.2351 28.2362L22.1821 27.7788L21.5876 25.2481L19.2939 26.4715L20.2351 28.2362ZM17.409 26.5957L19.4078 26.5242L19.3151 23.9314L16.8312 24.681L17.409 26.5957ZM9.03361 32.8422L10.7679 33.8384V33.8384L9.03361 32.8422ZM10.6669 41.6141L9.66305 43.3439H9.66305L10.6669 41.6141ZM19.041 38.65L20.7753 39.6461H20.7753L19.041 38.65ZM19.2939 26.4715C19.2998 26.4683 19.3068 26.4655 19.3147 26.4635C19.3228 26.4614 19.3296 26.4609 19.3337 26.4609V30.4609C19.9959 30.4609 20.6251 30.2948 21.1763 30.0009L19.2939 26.4715ZM19.3337 26.4609C19.3415 26.4609 19.3536 26.4628 19.3658 26.4679C19.3768 26.4724 19.3842 26.4779 19.389 26.4826C19.3938 26.4873 19.3983 26.4932 19.4018 26.5011C19.4059 26.5101 19.4076 26.519 19.4078 26.5242L15.4103 26.6672C15.4854 28.7665 17.2037 30.4609 19.3337 30.4609V26.4609ZM10.7679 33.8384C11.2949 32.9207 12.4571 31.7593 13.941 30.6845C15.4069 29.6227 16.9325 28.8286 17.9869 28.5104L16.8312 24.681C15.2104 25.1701 13.2812 26.2233 11.5946 27.445C9.92601 28.6536 8.23801 30.2118 7.29932 31.8461L10.7679 33.8384ZM11.6708 39.8843C10.7576 39.3543 10.1774 38.5527 9.97156 37.5953C9.76377 36.6288 9.90654 35.338 10.7679 33.8384L7.29932 31.8461C6.03336 34.0502 5.61106 36.3435 6.0609 38.436C6.5127 40.5376 7.81276 42.2701 9.66305 43.3439L11.6708 39.8843ZM17.3067 37.6539C15.7928 40.2897 13.2498 40.8007 11.6708 39.8843L9.66305 43.3439C13.611 45.6351 18.4373 43.7166 20.7753 39.6461L17.3067 37.6539ZM18.2881 28.6935C18.542 29.7744 18.6204 31.5025 18.4384 33.3106C18.2541 35.1416 17.8341 36.7356 17.3067 37.6539L20.7753 39.6461C21.7135 38.0126 22.2115 35.766 22.4183 33.7112C22.6274 31.6334 22.57 29.4304 22.1821 27.7788L18.2881 28.6935Z" fill="#23262A" mask="url(#path-7-inside-2_2275_65451)"/>
<mask id="path-9-inside-3_2275_65451" fill="white">
<path fill-rule="evenodd" clip-rule="evenodd" d="M20.3565 28.1659C22.3898 30.0909 26.9943 32.3333 29.9257 32.3333C34.1803 32.3333 36.6664 29.7331 36.6664 26.5256C36.6664 23.318 33.7775 20.7178 29.9257 20.7178C26.9943 20.7178 22.3897 22.9603 20.3564 24.8853C20.8986 25.2278 21.259 25.8344 21.259 26.5256C21.259 27.2168 20.8986 27.8233 20.3565 28.1659Z"/>
</mask>
<path d="M20.3565 28.1659L19.2883 26.475L17.1131 27.8493L18.9815 29.6182L20.3565 28.1659ZM20.3564 24.8853L18.9814 23.433L17.113 25.202L19.2883 26.5762L20.3564 24.8853ZM29.9257 30.3333C28.876 30.3333 27.2967 29.9036 25.6284 29.1492C23.9815 28.4043 22.5341 27.4733 21.7315 26.7135L18.9815 29.6182C20.2122 30.7834 22.0837 31.9361 23.9802 32.7938C25.8553 33.6418 28.044 34.3333 29.9257 34.3333V30.3333ZM34.6664 26.5256C34.6664 27.5928 34.263 28.4992 33.5444 29.154C32.8198 29.8143 31.6428 30.3333 29.9257 30.3333V34.3333C32.4631 34.3333 34.6565 33.5522 36.2386 32.1106C37.8268 30.6633 38.6664 28.6659 38.6664 26.5256H34.6664ZM29.9257 22.7178C32.9364 22.7178 34.6664 24.6688 34.6664 26.5256H38.6664C38.6664 21.9672 34.6186 18.7178 29.9257 18.7178V22.7178ZM21.7315 26.3376C22.534 25.5778 23.9814 24.6468 25.6284 23.902C27.2967 23.1475 28.876 22.7178 29.9257 22.7178V18.7178C28.0439 18.7178 25.8552 19.4093 23.9801 20.2573C22.0836 21.115 20.2122 22.2677 18.9814 23.433L21.7315 26.3376ZM19.2883 26.5762C19.2787 26.5701 19.2723 26.5631 19.2675 26.5546C19.2649 26.5499 19.2626 26.5443 19.261 26.5383C19.2593 26.5319 19.259 26.5272 19.259 26.5256H23.259C23.259 25.123 22.5252 23.8897 21.4246 23.1944L19.2883 26.5762ZM19.259 26.5256C19.259 26.5239 19.2593 26.5193 19.261 26.5129C19.2626 26.5068 19.2649 26.5013 19.2675 26.4966C19.2723 26.4881 19.2787 26.4811 19.2883 26.475L21.4247 29.8567C22.5252 29.1614 23.259 27.9282 23.259 26.5256H19.259Z" fill="#23262A" mask="url(#path-9-inside-3_2275_65451)"/>
<mask id="path-11-inside-4_2275_65451" fill="white">
<path fill-rule="evenodd" clip-rule="evenodd" d="M21.2578 26.4547C23.9329 25.6473 28.1673 22.7601 29.6331 20.2082C31.7604 16.5044 30.7632 13.0401 27.9997 11.4363C25.2363 9.83254 21.5516 11.0473 19.6257 14.4004C18.16 16.9522 17.7897 22.0816 18.4316 24.8141C18.7005 24.6707 19.0074 24.5894 19.3331 24.5894C20.3732 24.5894 21.2208 25.4182 21.2578 26.4547Z"/>
</mask>
<path d="M29.6331 20.2082L27.8988 19.212L27.8988 19.212L29.6331 20.2082ZM21.2578 26.4547L19.259 26.526L19.3515 29.1191L21.8356 28.3694L21.2578 26.4547ZM27.9997 11.4363L26.9958 13.1661L27.9997 11.4363ZM19.6257 14.4004L21.36 15.3965L19.6257 14.4004ZM18.4316 24.8141L16.4845 25.2714L17.079 27.8024L19.3729 26.5788L18.4316 24.8141ZM27.8988 19.212C27.3717 20.1297 26.2096 21.291 24.7257 22.3659C23.2599 23.4276 21.7343 24.2217 20.6799 24.54L21.8356 28.3694C23.4564 27.8802 25.3856 26.827 27.0722 25.6053C28.7407 24.3968 30.4287 22.8386 31.3674 21.2043L27.8988 19.212ZM26.9958 13.1661C27.909 13.6961 28.4893 14.4977 28.6951 15.4551C28.9029 16.4217 28.7601 17.7124 27.8988 19.212L31.3674 21.2043C32.6333 19.0002 33.0556 16.7069 32.6058 14.6144C32.154 12.5128 30.8539 10.7803 29.0036 9.70651L26.9958 13.1661ZM21.36 15.3965C22.8739 12.7607 25.4169 12.2497 26.9958 13.1661L29.0036 9.70651C25.0557 7.41533 20.2293 9.33379 17.8914 13.4043L21.36 15.3965ZM20.3786 24.3568C20.1247 23.2759 20.0463 21.5478 20.2283 19.7397C20.4125 17.9088 20.8325 16.3148 21.36 15.3965L17.8914 13.4043C16.9532 15.0378 16.4552 17.2844 16.2484 19.3392C16.0392 21.4169 16.0966 23.6198 16.4845 25.2714L20.3786 24.3568ZM19.3729 26.5788C19.367 26.5819 19.3599 26.5847 19.3521 26.5867C19.344 26.5888 19.3372 26.5894 19.3331 26.5894V22.5894C18.6707 22.5894 18.0415 22.7554 17.4902 23.0495L19.3729 26.5788ZM19.3331 26.5894C19.3253 26.5894 19.3132 26.5874 19.301 26.5824C19.29 26.5778 19.2826 26.5723 19.2777 26.5676C19.2729 26.563 19.2685 26.557 19.2649 26.5491C19.2609 26.5401 19.2592 26.5312 19.259 26.526L23.2565 26.3834C23.1816 24.2839 21.4632 22.5894 19.3331 22.5894V26.5894Z" fill="#23262A" mask="url(#path-11-inside-4_2275_65451)"/>
<mask id="path-13-inside-5_2275_65451" fill="white">
<path fill-rule="evenodd" clip-rule="evenodd" d="M20.2353 24.8142C20.8771 22.0816 20.5069 16.9522 19.0412 14.4004C16.9139 10.6967 13.4306 9.83258 10.6671 11.4364C7.90368 13.0401 7.1079 16.8551 9.03382 20.2082C10.4996 22.7601 14.734 25.6474 17.4092 26.4547C17.4461 25.4183 18.2937 24.5894 19.3338 24.5894C19.6595 24.5894 19.9664 24.6707 20.2353 24.8142Z"/>
</mask>
<path d="M19.0412 14.4004L20.7755 13.4043V13.4043L19.0412 14.4004ZM20.2353 24.8142L19.294 26.5788L21.5879 27.8024L22.1823 25.2715L20.2353 24.8142ZM10.6671 11.4364L11.671 13.1662L10.6671 11.4364ZM9.03382 20.2082L10.7681 19.2121L9.03382 20.2082ZM17.4092 26.4547L16.8313 28.3694L19.3154 29.1192L19.4079 26.526L17.4092 26.4547ZM17.3069 15.3965C17.8343 16.3148 18.2543 17.9088 18.4386 19.7398C18.6206 21.5478 18.5422 23.2759 18.2883 24.3569L22.1823 25.2715C22.5703 23.6199 22.6276 21.4169 22.4185 19.3392C22.2117 17.2844 21.7137 15.0378 20.7755 13.4043L17.3069 15.3965ZM11.671 13.1662C12.5839 12.6364 13.5591 12.5346 14.4783 12.8313C15.4071 13.1312 16.4453 13.8965 17.3069 15.3965L20.7755 13.4043C19.5098 11.2006 17.7427 9.68196 15.7072 9.02481C13.662 8.36452 11.5138 8.63259 9.66326 9.70656L11.671 13.1662ZM10.7681 19.2121C9.25258 16.5735 10.083 14.0878 11.671 13.1662L9.66326 9.70656C5.72439 11.9925 4.96321 17.1367 7.29953 21.2043L10.7681 19.2121ZM17.9871 24.54C16.9326 24.2218 15.407 23.4277 13.9412 22.3659C12.4573 21.2911 11.2952 20.1297 10.7681 19.2121L7.29953 21.2043C8.23821 22.8386 9.9262 24.3968 11.5947 25.6054C13.2814 26.8271 15.2106 27.8803 16.8313 28.3694L17.9871 24.54ZM19.4079 26.526C19.4077 26.5313 19.4061 26.5401 19.402 26.5491C19.3984 26.557 19.394 26.563 19.3892 26.5677C19.3844 26.5724 19.3769 26.5779 19.366 26.5824C19.3538 26.5875 19.3416 26.5894 19.3338 26.5894V22.5894C17.2037 22.5894 15.4853 24.284 15.4104 26.3834L19.4079 26.526ZM19.3338 26.5894C19.3297 26.5894 19.323 26.5888 19.3148 26.5868C19.307 26.5848 19.2999 26.582 19.294 26.5788L21.1766 23.0495C20.6254 22.7555 19.9962 22.5894 19.3338 22.5894V26.5894Z" fill="#23262A" mask="url(#path-13-inside-5_2275_65451)"/>
<path d="M20.3337 47.2593C20.3337 45.58 21.1867 43.1077 22.3368 40.997C22.9033 39.9573 23.5103 39.0644 24.063 38.4472C24.3402 38.1376 24.5812 37.9229 24.7742 37.7926C24.8972 37.7095 24.9709 37.6807 25.0003 37.671C25.0298 37.6807 25.1035 37.7095 25.2265 37.7926C25.4194 37.9229 25.6604 38.1376 25.9377 38.4472C26.4903 39.0644 27.0974 39.9573 27.6639 40.997C28.8139 43.1077 29.667 45.58 29.667 47.2593C29.667 50.7151 27.4334 53 25.0003 53C23.7123 53 22.5707 52.4941 21.7407 51.5607C20.9064 50.6223 20.3337 49.188 20.3337 47.2593Z" stroke="#23262A" stroke-width="2"/>
</g>
<defs>
<clipPath id="clip0_2275_65451">
<rect width="64" height="64" fill="white"/>
</clipPath>
</defs>
</svg>
