<svg width="63px" height="90px" viewBox="0 0 54 93" version="1.1" xmlns="http://www.w3.org/2000/svg"
     style="fill-rule:evenodd;clip-rule:evenodd;stroke-linejoin:round;stroke-miterlimit:2;"
>
    <path d="M14,50.7C15,52.3 17.9,81 26.5,81C35.1,81 39,51.8 39,50.3C25.8,42.7 14,50.7 14,50.7Z"
          style="fill:rgb(231,229,226);fill-rule:nonzero;"/>
    <path d="M38.7,50.2C44.7,53.1 54,61.1 54,68.5L54,93L0,93L0,68.5C0,61.4 8.5,53.7 14.5,50.5C14.2,50.7 14,50.8 14,50.8C15,52.5 17.8,60 26.4,60C35,60 39,51.9 39,50.4C38.9,50.3 38.8,50.2 38.7,50.2Z"
          style="fill:rgb(231,229,226);fill-rule:nonzero;"/>
    <path d="M47.2,35.3C44.7,45.6 36.6,53.1 27,53.1C17.4,53.1 9.3,45.6 6.8,35.3C6.6,35.4 6.3,35.4 6,35.4C4.9,35.4 4,34.6 4,33.7L4,26.7C4,25.7 4.9,25 6,25L6.2,25C7.7,13.1 16.4,4 27,4C37.6,4 46.3,13.1 47.8,25L48,25C49.1,25 50,25.8 50,26.7L50,33.7C50,34.7 49.1,35.4 48,35.4C47.7,35.4 47.5,35.4 47.2,35.3Z"
          style="fill:rgb(231,229,226);fill-rule:nonzero;"/>
</svg>
