<svg role="img" width="96" height="96" viewBox="0 0 96 96" fill="none" xmlns="http://www.w3.org/2000/svg">
    <path d="M38.4363 25.7389C41.7157 29.0183 44.2221 37.9897 42.6058 39.6059C40.9896 41.2221 32.0182 38.7157 28.7389 35.4364C25.4595 32.157 25.1708 27.5267 27.8487 24.8488C30.5266 22.1709 34.814 22.1167 38.4363 25.7389Z" fill="#e6c7d8"></path>
    <path d="M49.0183 25.7389C45.7389 29.0183 43.2325 37.9897 44.8488 39.6059C46.465 41.2221 55.4364 38.7157 58.7157 35.4364C61.9951 32.157 62.2837 27.5267 59.6059 24.8488C56.928 22.1709 52.6405 22.1167 49.0183 25.7389Z" fill="#e6c7d8"></path>
    <rect x="43" y="39" width="2" height="26" fill="#e6c7d8"></rect>
    <path d="M28.1442 81.6H41.2163C44.826 81.6 47.7523 78.8242 47.7523 75.4C47.7523 71.9758 44.826 69.2 41.2163 69.2H26.5102C24.2499 65.4936 19.9106 63 15.0721 63C7.85257 63 2 68.5517 2 75.4V94H45.5027C46.9895 94 48.4633 93.7237 49.8492 93.1852L75.5833 83.185C79.2295 81.7681 80.4129 77.1933 77.911 74.1861V74.1861C76.5876 72.5956 74.5091 71.8427 72.4741 72.2168L47.6663 76.7778" stroke="#99185e" stroke-width="3"></path>
    <path d="M94.5 16.0584C94.5 24.104 88.003 30.6169 80 30.6169C71.997 30.6169 65.5 24.104 65.5 16.0584C65.5 8.01288 71.997 1.5 80 1.5C88.003 1.5 94.5 8.01288 94.5 16.0584Z" stroke="#99185e" stroke-width="3"></path>
    <path d="M91.9999 47.9999V47.9999C91.9999 41.3725 86.6273 35.9561 79.9999 35.9561V35.9561C73.3725 35.9561 67.9999 41.3725 67.9999 47.9999V47.9999" stroke="#99185e" stroke-width="3"></path>
    <mask id="path-7-inside-1" fill="white">
        <ellipse cx="76.0001" cy="15.5566" rx="2" ry="2.00731"></ellipse>
    </mask>
    <ellipse cx="76.0001" cy="15.5566" rx="2" ry="2.00731" fill="#99185e"></ellipse>
    <path d="M74.5801 15.5566C74.5801 14.7882 75.2041 14.1439 76.0001 14.1439V20.9839C79.0053 20.9839 81.4201 18.5423 81.4201 15.5566H74.5801ZM76.0001 14.1439C76.7961 14.1439 77.4201 14.7882 77.4201 15.5566H70.5801C70.5801 18.5423 72.995 20.9839 76.0001 20.9839V14.1439ZM77.4201 15.5566C77.4201 16.3251 76.7961 16.9693 76.0001 16.9693V10.1293C72.995 10.1293 70.5801 12.571 70.5801 15.5566H77.4201ZM76.0001 16.9693C75.2041 16.9693 74.5801 16.3251 74.5801 15.5566H81.4201C81.4201 12.571 79.0053 10.1293 76.0001 10.1293V16.9693Z" fill="#262626" mask="url(#path-7-inside-1)"></path>
    <mask id="path-9-inside-2" fill="white">
        <ellipse cx="84" cy="15.5566" rx="2" ry="2.00731"></ellipse>
    </mask>
    <ellipse cx="84" cy="15.5566" rx="2" ry="2.00731" fill="#99185e"></ellipse>
    <path d="M82.58 15.5566C82.58 14.7882 83.204 14.1439 84 14.1439V20.9839C87.0051 20.9839 89.42 18.5423 89.42 15.5566H82.58ZM84 14.1439C84.796 14.1439 85.42 14.7882 85.42 15.5566H78.58C78.58 18.5423 80.9949 20.9839 84 20.9839V14.1439ZM85.42 15.5566C85.42 16.3251 84.796 16.9693 84 16.9693V10.1293C80.9949 10.1293 78.58 12.571 78.58 15.5566H85.42ZM84 16.9693C83.204 16.9693 82.58 16.3251 82.58 15.5566H89.42C89.42 12.571 87.0051 10.1293 84 10.1293V16.9693Z" fill="#99185e" mask="url(#path-9-inside-2)"></path>
</svg>