<svg width="64" height="64" viewBox="0 0 64 64" fill="none" xmlns="http://www.w3.org/2000/svg">
<path fill-rule="evenodd" clip-rule="evenodd" d="M43.8314 30.4425C42.7719 33.8684 40.6976 36.7122 38.0392 38.4525L38.1754 39.9781L38.1746 40.0401L36.7376 52.6158H27.6237L27.5858 52.3516L25.8239 40.0185L25.8892 38.476C23.2174 36.7403 21.1314 33.8918 20.0658 30.4569C20.0296 30.4603 19.993 30.462 19.956 30.462C19.2667 30.462 18.7207 29.8618 18.7207 29.1348V25.0206C18.7207 24.5332 18.966 24.1026 19.3354 23.8717C19.9116 16.1909 25.3252 10.1543 31.9461 10.1543C38.5492 10.1543 43.9518 16.1584 44.5526 23.8094C44.9839 24.0183 45.2795 24.485 45.2795 25.0206V29.1348C45.2795 29.8622 44.7343 30.462 44.0442 30.462C43.9715 30.462 43.9004 30.4553 43.8314 30.4425Z" fill="#F1F1F1"/>
<path fill-rule="evenodd" clip-rule="evenodd" d="M37.7179 38.8776C37.6661 41.6239 35.1258 44.4414 31.9998 44.4414C28.8601 44.4414 26.3114 41.5994 26.2811 38.8418C24.6543 39.2526 22.1711 40.4916 20.1215 42.5622C18.1367 44.5673 16.5586 47.5813 16.5586 49.9194V63.9999H47.441V49.9194C47.441 47.5766 45.8288 44.5575 43.8073 42.55C41.7858 40.5426 39.3551 39.3204 37.7179 38.8776Z" fill="#0056B4"/>
<path fill-rule="evenodd" clip-rule="evenodd" d="M26.1787 38.9374C24.6802 39.4794 22.1664 40.6642 20.2648 42.4634C14.7059 41.2309 12.2354 38.3023 12.2354 38.3023C12.2354 38.3023 17.3568 33.3251 17.3599 24.6198V24.6106C17.3599 14.4174 22.8831 7.38477 31.9828 7.38477C41.0836 7.38477 46.6069 14.4174 46.6069 24.6106H46.6396C46.6396 33.322 51.7648 38.3023 51.7648 38.3023C51.7648 38.3023 49.2942 41.2309 43.7354 42.4617L43.727 42.4634C41.8902 40.7985 39.2262 39.5145 37.7769 38.9716L37.7786 38.9711L37.721 38.3258L37.7521 38.2724C40.4868 36.5295 42.6087 33.5934 43.6317 30.0455C43.7569 30.1149 43.8984 30.154 44.0481 30.154C44.5602 30.154 44.9746 29.6986 44.9746 29.1345V25.0203C44.9746 24.5376 44.6712 24.1341 44.2628 24.0276C44.2625 24.022 44.2621 24.0165 44.2617 24.0109C31.3323 25.4484 26.6749 16.6161 26.2926 16.6155C26.2926 16.6155 21.9988 19.6925 19.9466 23.3507C19.9466 23.3507 19.6339 24.0413 19.6323 24.0646C19.281 24.2093 19.0304 24.5822 19.0304 25.0203V29.1345C19.0304 29.6986 19.4459 30.154 19.957 30.154C20.0703 30.154 20.1787 30.1317 20.279 30.0909C21.3133 33.6405 23.4487 36.5734 26.1962 38.3048L26.2064 38.3258L26.1805 38.9374H26.1787Z" fill="#D05C4A"/>
<path fill-rule="evenodd" clip-rule="evenodd" d="M27.5846 26.9975C26.7865 27.0618 26.5631 25.8028 26.8036 24.9806C26.8488 24.8247 27.113 24.1152 27.5807 24.1152C28.0479 24.1152 28.2542 24.503 28.2828 24.5697C28.6265 25.3713 28.4577 26.9266 27.5846 26.9975Z" fill="#262626"/>
<path fill-rule="evenodd" clip-rule="evenodd" d="M36.841 26.9975C37.6391 27.0618 37.8625 25.8028 37.622 24.9806C37.5768 24.8247 37.3126 24.1152 36.8449 24.1152C36.3777 24.1152 36.1714 24.503 36.1428 24.5697C35.7991 25.3713 35.9679 26.9266 36.841 26.9975Z" fill="#262626"/>
<path d="M32.5091 28.2386C32.9864 28.1572 33.3124 28.2083 33.4291 28.3671C33.8697 28.9674 33.7288 29.6026 32.9728 30.1239C32.5754 30.398 32.0283 30.4944 31.7387 30.3523C31.5971 30.2828 31.4315 30.3538 31.3688 30.5108C31.3061 30.6678 31.3701 30.8514 31.5117 30.9209C31.9904 31.1557 32.7265 31.0259 33.2691 30.6519C34.2963 29.9433 34.5314 28.8839 33.864 27.9745C33.5816 27.5903 33.0816 27.5119 32.4238 27.6241C32.2707 27.6502 32.1658 27.809 32.1893 27.9787C32.2129 28.1484 32.3561 28.2647 32.5091 28.2386Z" fill="#262626"/>
<path d="M35.9601 32.3643C35.9321 32.4235 35.8678 32.5368 35.7645 32.686C35.5896 32.9387 35.37 33.192 35.1033 33.4282C34.3085 34.132 33.2741 34.539 31.9574 34.5018C30.6737 34.4655 29.6438 34.0648 28.8364 33.4186C28.5399 33.1813 28.2952 32.9273 28.0995 32.674C27.9842 32.5247 27.9121 32.4114 27.8806 32.3524C27.8049 32.2105 27.6186 32.152 27.4646 32.2219C27.3106 32.2917 27.2472 32.4634 27.323 32.6054C27.3687 32.6909 27.4575 32.8305 27.5933 33.0063C27.8162 33.2949 28.0934 33.5827 28.4289 33.8512C29.3404 34.5806 30.5053 35.0339 31.9384 35.0744C33.4308 35.1166 34.6239 34.6472 35.5339 33.8412C35.8382 33.5718 36.0883 33.2833 36.2884 32.9941C36.4101 32.8183 36.4893 32.6788 36.5297 32.5935C36.5984 32.4485 36.5265 32.2797 36.3692 32.2164C36.2119 32.1531 36.0288 32.2193 35.9601 32.3643Z" fill="#262626"/>
<path fill-rule="evenodd" clip-rule="evenodd" d="M43.1651 58.0003H32.8343C32.3733 58.0003 32 57.6214 32 57.1533V51.5146C32 51.0466 32.3733 50.667 32.8343 50.667H43.1651C43.6261 50.667 44 51.0466 44 51.5146V57.1533C44 57.6214 43.6261 58.0003 43.1651 58.0003Z" fill="white"/>
<path fill-rule="evenodd" clip-rule="evenodd" d="M38.621 51.8307H37.5504C37.4711 51.8307 37.4072 51.7672 37.4072 51.6883V51.5087C37.4072 51.4304 37.4711 51.3662 37.5504 51.3662H38.621C38.7003 51.3662 38.7642 51.4304 38.7642 51.5087V51.6883C38.7642 51.7672 38.7003 51.8307 38.621 51.8307Z" fill="#262626"/>
<path fill-rule="evenodd" clip-rule="evenodd" d="M37.7754 51.6667H38.3956V50H37.7754V51.6667Z" fill="#6A6A6A"/>
<path fill-rule="evenodd" clip-rule="evenodd" d="M38.1272 56.6651C36.8392 56.6651 35.7949 55.6208 35.7949 54.3327C35.7949 53.0444 36.8392 52 38.1272 52C39.4155 52 40.46 53.0444 40.46 54.3327C40.46 55.6208 39.4155 56.6651 38.1272 56.6651Z" fill="#C30000"/>
<path fill-rule="evenodd" clip-rule="evenodd" d="M34.667 55.3508L35.1437 54.1709H35.6018L35.1257 55.3508H34.667Z" fill="#C30000"/>
<path fill-rule="evenodd" clip-rule="evenodd" d="M40.5498 55.3508L41.0204 54.1709H41.2702L40.7996 55.3508H40.5498Z" fill="#C30000"/>
<path fill-rule="evenodd" clip-rule="evenodd" d="M41.4756 55.3508L41.9461 54.1709H42.0788L41.6082 55.3508H41.4756Z" fill="#C30000"/>
<path fill-rule="evenodd" clip-rule="evenodd" d="M40.1168 54.1709H39.7022C39.7022 54.1709 39.6736 54.1709 39.6635 54.1961L39.434 54.8986L39.2047 54.1961C39.1946 54.1709 39.1659 54.1709 39.1659 54.1709H38.3686C38.3514 54.1709 38.3369 54.1853 38.3369 54.2025V54.441C38.3369 54.2518 38.1355 54.1709 38.0176 54.1709C37.7536 54.1709 37.5768 54.3448 37.5218 54.6092C37.5188 54.4338 37.5042 54.371 37.457 54.3066C37.4353 54.2751 37.4039 54.2485 37.3698 54.2266C37.2994 54.1854 37.2363 54.1709 37.1006 54.1709H36.9412C36.9412 54.1709 36.9124 54.1709 36.9022 54.1961L36.7572 54.5555V54.2025C36.7572 54.1853 36.7429 54.1709 36.7257 54.1709H36.3569C36.3569 54.1709 36.3284 54.1709 36.3181 54.1961L36.1673 54.5698C36.1673 54.5698 36.1523 54.6071 36.1867 54.6071H36.3284V55.3191C36.3284 55.3368 36.3424 55.3508 36.3601 55.3508H36.7257C36.7429 55.3508 36.7572 55.3368 36.7572 55.3191V54.6071H36.8997C36.9815 54.6071 36.9988 54.6094 37.0306 54.6242C37.0498 54.6314 37.067 54.6461 37.0765 54.6629C37.0957 54.6992 37.1006 54.7428 37.1006 54.8713V55.3191C37.1006 55.3368 37.1148 55.3508 37.1323 55.3508H37.4826C37.4826 55.3508 37.5222 55.3508 37.5379 55.3117L37.6156 55.1198C37.7188 55.2644 37.8887 55.3508 38.0999 55.3508H38.1461C38.1461 55.3508 38.1859 55.3508 38.2017 55.3117L38.3369 54.9768V55.3191C38.3369 55.3368 38.3514 55.3508 38.3686 55.3508H38.7263C38.7263 55.3508 38.7657 55.3508 38.7816 55.3117C38.7816 55.3117 38.9246 54.9566 38.9252 54.9539H38.9254C38.9309 54.9243 38.8936 54.9243 38.8936 54.9243H38.7659V54.315L39.1675 55.3117C39.1832 55.3508 39.2228 55.3508 39.2228 55.3508H39.6453C39.6453 55.3508 39.685 55.3508 39.7007 55.3117L40.146 54.2091C40.1614 54.1709 40.1168 54.1709 40.1168 54.1709ZM38.3369 54.9243H38.0967C38.001 54.9243 37.9232 54.8469 37.9232 54.7512C37.9232 54.6556 38.001 54.5777 38.0967 54.5777H38.1638C38.2592 54.5777 38.3369 54.6556 38.3369 54.7512V54.9243Z" fill="white"/>
</svg>
