<?xml version="1.0" encoding="UTF-8" standalone="no"?>
<!DOCTYPE svg PUBLIC "-//W3C//DTD SVG 1.1//EN" "http://www.w3.org/Graphics/SVG/1.1/DTD/svg11.dtd">
<svg width="100%" height="100%" viewBox="0 0 54 93" version="1.1" xmlns="http://www.w3.org/2000/svg" xmlns:xlink="http://www.w3.org/1999/xlink" xml:space="preserve" xmlns:serif="http://www.serif.com/" style="fill-rule:evenodd;clip-rule:evenodd;stroke-linejoin:round;stroke-miterlimit:2;">
    <path d="M14,50.7C15,52.3 17.9,81 26.5,81C35.1,81 39,51.8 39,50.3C25.8,42.7 14,50.7 14,50.7Z" style="fill:rgb(231,229,226);fill-rule:nonzero;"/>
    <path d="M38.7,50.2C44.7,53.1 54,61.1 54,68.5L54,93L0,93L0,68.5C0,61.4 8.5,53.7 14.5,50.5C14.2,50.7 14,50.8 14,50.8C15,52.5 17.8,60 26.4,60C35,60 39,51.9 39,50.4C38.9,50.3 38.8,50.2 38.7,50.2Z" style="fill:rgb(87,140,210);fill-rule:nonzero;"/>
    <path d="M46.7,76L31.2,76C30.5,76 29.9,75.4 30,74.7L30,66.2C30,65.5 30.6,64.9 31.3,64.9L46.8,64.9C47.5,64.9 48.1,65.5 48.1,66.2L48.1,74.7C48,75.4 47.4,76 46.7,76" style="fill:rgb(210,36,42);fill-rule:nonzero;"/>
    <path d="M42.9,71C42.9,73.1 41.2,74.8 39.1,74.8C37,74.8 35.3,73.1 35.3,71C35.3,68.9 37,67.2 39.1,67.2C41.2,67.2 42.9,68.9 42.9,71M34.2,72.7L33.5,72.7L34.3,70.8L35,70.8L34.2,72.7ZM43.5,72.7L43,72.7L43.8,70.8L44.3,70.8L43.5,72.7ZM44.7,72.7L44.5,72.7L45.3,70.8L45.5,70.8L44.7,72.7Z" style="fill:white;fill-rule:nonzero;"/>
    <path d="M36.2,72.7L36.8,72.7C36.8,72.7 36.9,72.7 36.9,72.6L36.9,70.8C36.9,70.8 36.9,70.7 36.8,70.7L36.2,70.7C36.2,70.7 36.1,70.7 36.1,70.8L35.9,71.4L35.9,71.5L36.1,71.5L36.2,72.7C36.2,72.6 36.2,72.7 36.2,72.7" style="fill:rgb(197,45,53);fill-rule:nonzero;"/>
    <path d="M37.5,72.7L38.1,72.7C38.1,72.7 38.2,72.7 38.2,72.6L38.2,70.8C38.2,70.8 38.2,70.7 38.1,70.7L37.2,70.7C37.2,70.7 37.1,70.7 37.1,70.8L36.9,71.4L36.8,71.5L37.3,71.5C37.4,71.5 37.5,71.6 37.5,71.7L37.5,72.7C37.4,72.6 37.4,72.7 37.5,72.7M40.1,70.8L39.5,70.8C39.5,70.8 39.4,70.8 39.4,70.9L39.4,72.7C39.4,72.7 39.4,72.8 39.5,72.8L40.1,72.8C40.1,72.8 40.2,72.8 40.2,72.7L40.4,72.1L40.4,72L40.2,72L40.1,70.8" style="fill:rgb(197,45,53);fill-rule:nonzero;"/>
    <path d="M37.7,72.7L38.1,72.7C38.1,72.7 38.2,72.7 38.2,72.6L38.4,72L38.4,71.9L38.2,71.9C38.2,72 37.7,72.7 37.7,72.7ZM41.6,70.8L42.3,70.8C42.3,70.8 42.4,70.8 42.3,70.9L41.6,72.7L41,72.7L41.6,70.8" style="fill:rgb(197,45,53);fill-rule:nonzero;"/>
    <path d="M40.8,70.8L39.8,70.8C39.7,70.8 40.1,70.9 40.1,70.9L40.8,72.6C40.8,72.6 40.8,72.7 40.9,72.7L41.5,72.7L40.8,70.8M39.5,71.4L39.5,71.8C39.5,71.8 39.4,71.4 39.2,71.4C38.9,71.4 38.9,71.6 38.9,71.7C38.9,71.8 39,72 39.1,72L39.6,72L39.3,72.7L39,72.7C38.8,72.7 38.1,72.4 38.1,71.8C38.1,71.2 38.6,70.8 39,70.8C39.2,70.7 39.5,71 39.5,71.4Z" style="fill:rgb(197,45,53);fill-rule:nonzero;"/>
    <path d="M39.9,66.7L38.3,66.7C38.2,66.7 38.1,66.6 38.1,66.5L38.1,66.2C38.1,66.1 38.2,66 38.3,66L39.9,66C40,66 40.1,66.1 40.1,66.2L40.1,66.5C40.1,66.7 40,66.7 39.9,66.7" style="fill:rgb(90,31,87);fill-rule:nonzero;"/>
    <rect x="38.7" y="64" width="0.9" height="2.5" style="fill:rgb(194,181,207);fill-rule:nonzero;"/>
    <path d="M47.2,35.3C44.7,45.6 36.6,53.1 27,53.1C17.4,53.1 9.3,45.6 6.8,35.3C6.6,35.4 6.3,35.4 6,35.4C4.9,35.4 4,34.6 4,33.7L4,26.7C4,25.7 4.9,25 6,25L6.2,25C7.7,13.1 16.4,4 27,4C37.6,4 46.3,13.1 47.8,25L48,25C49.1,25 50,25.8 50,26.7L50,33.7C50,34.7 49.1,35.4 48,35.4C47.7,35.4 47.5,35.4 47.2,35.3Z" style="fill:rgb(231,229,226);fill-rule:nonzero;"/>
    <g transform="matrix(1,0,0,1,0.154523,1.93776)">
        <path d="M19,27.6C17.6,27.7 17.1,25.6 17.6,24.2C17.7,23.9 18.2,22.7 19,22.7C19.8,22.7 20.2,23.4 20.3,23.5C20.9,24.9 20.6,27.5 19,27.6M35.2,27.6C36.6,27.7 37.1,25.6 36.6,24.2C36.5,23.9 36,22.7 35.2,22.7C34.4,22.7 34,23.4 33.9,23.5C33.3,24.9 33.6,27.5 35.2,27.6" style="fill:rgb(99,94,89);fill-rule:nonzero;"/>
    </g>
    <g transform="matrix(1,0,0,1,-0.067439,1.07944)">
        <path d="M26.8,34.6C26.4,34.6 26.1,34.5 25.8,34.4C25.5,34.3 25.4,34 25.5,33.7C25.6,33.4 25.9,33.3 26.2,33.4C26.7,33.6 27.7,33.5 28.4,33C29.1,32.6 29.5,32 29.6,31.5C29.7,31.1 29.5,30.6 29.2,30.2C29,30 28.4,30 27.6,30.1C27.3,30.1 27.1,30 27,29.7C27,29.4 27.1,29.2 27.4,29.1C28.6,28.9 29.5,29.1 30,29.7C30.5,30.4 30.8,31.1 30.6,31.8C30.5,32.6 29.9,33.4 28.9,34C28.3,34.3 27.5,34.6 26.8,34.6Z" style="fill:rgb(209,191,163);fill-rule:nonzero;"/>
    </g>
    <g transform="matrix(-0.635738,-7.78555e-17,7.43293e-17,-0.606945,43.8363,65.3941)">
        <path d="M27.1,42.1L26.8,42.1C21.5,41.9 19.5,38 19.4,37.8C19.3,37.5 19.4,37.2 19.6,37.1C19.8,37 20.2,37.1 20.3,37.3C20.4,37.4 22.2,40.9 26.9,41.1C31.6,41.3 33.3,37.4 33.3,37.4C33.4,37.1 33.7,37 34,37.1C34.3,37.2 34.4,37.5 34.3,37.8C34.2,37.8 32.2,42.1 27.1,42.1Z" style="fill:rgb(89,58,50);fill-rule:nonzero;"/>
    </g>
    <path d="M6.6,30.7C6.7,30.6 6.7,30.5 6.7,30.4L6.7,28.4C6.6,22.8 8.5,20.3 10.1,18.3C10.1,18.3 9.1,22.6 9.8,21.7C13.6,16.7 31.2,20.1 34.8,13.6C35.3,17.2 30.7,18.2 30.7,18.2C34.4,18.9 37.6,17.4 38.4,15.7C38.7,17.1 37.8,18.1 36.5,19.1C41,18.2 41.1,15.1 41.1,15.1C41.7,19.2 46.4,17.6 46.4,24.4L46.4,30.4C46.4,30.7 46.6,31 46.9,31L47.4,31C47.7,31 47.9,30.7 47.9,30.4L47.9,26C48.2,10.4 39.4,0 27.3,0C15.9,0 5,10.4 5,24.1L5,30.4C5,30.8 5.2,31 5.5,31L6.1,31C6.3,31 6.4,30.9 6.6,30.7" style="fill:rgb(202,136,62);fill-rule:nonzero;"/>
    <g transform="matrix(1,0,0,1,0.105933,1.7775)">
        <path d="M25.9,43.4C21.5,43.4 17.9,42 17.9,40.2C17.9,38.4 21.5,37 25.9,37C30.3,37 33.9,38.4 33.9,40.2C33.9,42 30.3,43.4 25.9,43.4M26.7,34C23.8,34 22,34.7 17.9,36.1C5.2,40.7 6.3,22.1 6.3,22.1C3.4,46 18.6,52 26.5,52C34.6,52 50.6,43.9 47.5,22C47.5,22 47.9,39.1 34.6,35.8C30.9,34.9 29.6,34 26.7,34Z" style="fill:rgb(202,136,62);fill-rule:nonzero;"/>
    </g>
</svg>
