<svg width="1em" height="1em" viewBox="0 0 24 24" fill="none" xmlns="http://www.w3.org/2000/svg">
    <path fill-rule="evenodd" clip-rule="evenodd"
          d="M6 7V5H2v5h20V5h-4v2a1 1 0 11-2 0V5H8v2a1 1 0 11-2 0zm10-4H8V1a1 1 0 10-2 0v2H2a2 2 0 00-2 2v17a2 2 0 002 2h20a2 2 0 002-2V5a2 2 0 00-2-2h-4V1a1 1 0 10-2 0v2zM2 12v10h20V12H2zm6 3a1 1 0 00-1-1H5a1 1 0 100 2h2a1 1 0 001-1zm-1 3a1 1 0 110 2H5a1 1 0 110-2h2zm6-4h-2a1 1 0 100 2h2a1 1 0 100-2zm-2 4h2a1 1 0 110 2h-2a1 1 0 110-2zm9-3a1 1 0 00-1-1h-2a1 1 0 100 2h2a1 1 0 001-1zm-4 4a1 1 0 011-1h2a1 1 0 110 2h-2a1 1 0 01-1-1z"
          fill="currentColor"></path>
</svg>