<svg role="img" xmlns="http://www.w3.org/2000/svg" width="96" height="96" fill="none" viewBox="0 0 96 96">
    <path d="M10.598 -0.784424L15.408 6.24556C18.0545 10.1136 15.2848 15.3647 10.598 15.3647C5.91125 15.3647 3.14148 10.1136 5.78801 6.24556L10.598 -0.784424Z" fill="#e6c7d8"></path>
    <path d="M25.8973 -0.591309L30.7073 6.43868C33.3538 10.3067 30.5841 15.5578 25.8973 15.5578C21.2106 15.5578 18.4408 10.3067 21.0873 6.43868L25.8973 -0.591309Z" fill="#e6c7d8"></path>
    <path d="M34.2538 15.7512L39.0638 22.7812C41.7103 26.6492 38.9405 31.9004 34.2538 31.9004C29.567 31.9004 26.7972 26.6492 29.4438 22.7812L34.2538 15.7512Z" fill="#e6c7d8"></path>
    <path d="M26.0494 32L30.8594 39.03C33.5059 42.898 30.7362 48.1492 26.0494 48.1492C21.3627 48.1492 18.5929 42.898 21.2394 39.03L26.0494 32Z" fill="#e6c7d8"></path>
    <path d="M41.0494 0L45.8594 7.02999C48.5059 10.898 45.7362 16.1492 41.0494 16.1492C36.3627 16.1492 33.5929 10.898 36.2394 7.02999L41.0494 0Z" fill="#e6c7d8"></path>
    <path d="M18.2477 16.408L23.0577 23.4379C25.7042 27.306 22.9344 32.5571 18.2477 32.5571C13.5609 32.5571 10.7911 27.306 13.4377 23.4379L18.2477 16.408Z" fill="#e6c7d8"></path>
    <path stroke="#99185e" stroke-width="3" d="M16.4 68.52a8.3 8.3 0 0 0-8.4 8.3V96m7-37.65c1.63 0 4.12.84 6.29 2.01 1.06.57 1.95 1.18 2.56 1.72.28.25.47.45.58.6a4 4 0 0 1-.58.62c-.6.53-1.5 1.14-2.56 1.71-2.17 1.17-4.66 2.01-6.29 2.01-3.42 0-5.5-2.17-5.5-4.33 0-1.2.47-2.24 1.34-3A6.16 6.16 0 0 1 15 58.35Zm12.48 4.48v.01M37 67.02c-1.63 0-4.12-.84-6.29-2a14.05 14.05 0 0 1-2.56-1.72 4 4 0 0 1-.58-.61 4 4 0 0 1 .58-.61c.6-.54 1.5-1.15 2.56-1.72 2.17-1.17 4.66-2 6.29-2 3.42 0 5.5 2.16 5.5 4.33a3.9 3.9 0 0 1-1.34 3A6.16 6.16 0 0 1 37 67.02ZM24.39 51.63c.8 1.35 1.3 3.85 1.34 6.26.02 1.18-.07 2.23-.25 3-.08.4-.18.67-.27.84h-.01c-.2 0-.49-.06-.88-.18-.78-.24-1.77-.69-2.8-1.3-2.13-1.23-4.1-2.9-4.9-4.26-1.68-2.81-.85-5.66 1.15-6.78a4.23 4.23 0 0 1 3.38-.39 5.94 5.94 0 0 1 3.24 2.8Zm-7.78 18.53c.8-1.36 2.78-3.03 4.9-4.27a14.2 14.2 0 0 1 2.8-1.3c.4-.11.7-.17.89-.18h.01c.09.18.19.45.27.84.18.78.27 1.83.25 3.01-.04 2.4-.54 4.9-1.34 6.26-1.67 2.82-4.63 3.54-6.62 2.42a4.03 4.03 0 0 1-2.04-2.65 5.69 5.69 0 0 1 .88-4.13Zm18.78 0c-.8-1.36-2.78-3.03-4.9-4.27a14.2 14.2 0 0 0-2.8-1.3c-.4-.11-.7-.17-.89-.18h-.01c-.09.18-.19.45-.27.84-.18.78-.27 1.83-.25 3.01.04 2.4.54 4.9 1.34 6.26 1.67 2.82 4.63 3.54 6.62 2.42a4.03 4.03 0 0 0 2.04-2.65 5.69 5.69 0 0 0-.88-4.13Zm0-14.16c-.8 1.35-2.78 3.02-4.9 4.26-1.04.6-2.03 1.05-2.8 1.3-.4.11-.7.17-.89.18h-.01a3.69 3.69 0 0 1-.27-.84c-.18-.78-.27-1.83-.25-3 .04-2.42.54-4.91 1.34-6.27 1.67-2.82 4.63-3.54 6.62-2.42a4.03 4.03 0 0 1 2.04 2.65A5.69 5.69 0 0 1 35.4 56Z"></path>
    <path fill="#99185e" fill-rule="evenodd" d="M31 29.9C33.01 13.06 46.8 0 63.5 0S93.99 13.05 96 29.9v3h-5.48l-.77-.53a12.7 12.7 0 0 0-14.63 0l-.77.54h-2.77l-.78-.54a12.7 12.7 0 0 0-14.62 0l-.78.54h-2.77l-.77-.54a12.7 12.7 0 0 0-14.63 0l-.77.54H31v-3Zm60.44 0a15.7 15.7 0 0 0-18.06 0h-.88a15.7 15.7 0 0 0-18.06 0h-.89a15.7 15.7 0 0 0-18.06 0H34C36 14.62 48.53 3 63.48 3c14.95 0 27.48 11.61 29.47 26.9h-1.5Z" clip-rule="evenodd"></path>
    <path stroke="#99185e" stroke-width="3" d="M63.48 32.46V56.8a5.41 5.41 0 1 0 10.83 0v-1.2"></path>
</svg>